<?xml version="1.0" encoding="utf-8"?>
<!-- Generator: Adobe Illustrator 22.0.1, SVG Export Plug-In . SVG Version: 6.00 Build 0)  -->
<svg version="1.1" id="Layer_1" xmlns="http://www.w3.org/2000/svg" xmlns:xlink="http://www.w3.org/1999/xlink" x="0px" y="0px"
	 width="1200px" height="1200px" viewBox="0 0 1200 1200" style="enable-background:new 0 0 1200 1200;" xml:space="preserve">
<path id="#logo0" d="M182.4315,430.318c0-8.0545,21.2643-19.6534,34.1516-29.9633c1.2889-0.9664,3.8663-5.4772,3.8663-6.7661
	c0-17.72-0.322-74.4242,30.9297-168.5024c0.9664-2.8998,33.1851,6.7656,26.097,14.4982
	c-9.021,15.4651-31.5742,145.3052-22.2307,139.5061c16.4316-9.021,58.3157-23.1972,77.6466-28.0299
	c0.6445-0.3225,2.8998-2.8998,3.2218-3.8663c7.4101-57.9932,13.8537-109.5428,33.8296-161.7368
	c-1.9334-5.1547,37.0509,13.8537,34.4735,19.0089c-13.8537,27.7079-33.5071,132.7399-28.0299,136.6062
	c19.0089,0.9665,26.419,2.5774,30.9297,7.0881c3.2218,4.1883,4.5102,14.1762,2.5774,11.9208
	c-2.8998-4.1882-25.4525-1.9329-31.8962-1.9329c-0.6445,0-5.4772,3.8663-4.8327,7.0881
	c-4.8327,60.2486-7.7325,125.3298-2.2554,184.9339c-6.7661,8.699-28.9969-14.4982-31.2522-25.1306
	c-6.7656-26.419-10.6319-109.2208-6.1211-154.6487c0.322-0.9665-0.9665-2.5774-2.2554-3.2218
	c-17.72,2.5774-67.3367,24.8081-75.7137,28.9969c-1.2884,0.644-3.8658,5.1547-3.8658,6.7656
	c0,37.6959-1.2889,100.1998,7.7321,125.9743c0.3225,8.699-35.7625-12.8873-35.7625-19.9754
	c-0.6445-22.8752-3.2218-29.9633-3.2218-84.4127c0-1.9329-1.6109-3.5438-2.8993-3.5438
	c-1.9334,0.6445-21.9088,12.8873-21.9088,20.2979C189.8421,442.8833,182.4315,432.5734,182.4315,430.318z M528.4492,359.0495
	c0.0002,0.0217,0.0038,0.0439,0.0038,0.0656C528.5677,358.618,528.5587,358.6245,528.4492,359.0495z M134.8632,333.9766
	c-3.5619-3.0844-7.2049-6.2031-11.24-8.5876c-9.8221-5.8045-19.7491-11.4669-29.8943-16.6797
	c-9.8234-5.0478-20.0814-9.1292-29.5859-10.1008c-3.5983-0.5054-5.5431-0.8723-7.5047-1.0313
	c-2.7432-0.2224-5.5214-0.58-8.2448-0.3671c-7.0697,0.5521-10.3614,6.6017-6.8911,12.627c1.3636,2.3676,3.0636,4.5965,4.9,6.6267
	c5.3538,5.9186,11.8095,10.4922,19.0154,13.7743c6.4259,2.9271,13.1611,5.1773,19.769,7.7024
	c10.2717,3.925,21.1816,5.9618,31.092,11.0558c4.9136,2.5259,10.5897,2.9367,16.1767,2.7537
	c4.5142-0.1483,10.2526-6.3686,6.6769-12.1736C137.9033,337.5801,136.6029,335.4827,134.8632,333.9766z M114.7663,405.0762
	c1.8991-0.4652,3.7653-1.0932,5.6082-1.7535c3.3009-1.183,7.2888-2.2711,7.303-6.4337c0.0115-3.3772-3.3048-5.2277-6.1575-6.5222
	c-2.4417-1.1079-5.193-2.1912-7.7961-2.1653c-8.5985,0.0861-17.1649,0.1856-25.7325,1.9156
	c-13.9677,2.8205-26.9474,8.375-40.1168,13.396c-3.5493,1.3532-6.6082,4.1742-9.6521,6.6203
	c-3.0542,2.4542-2.8259,6.8462,0.515,9.0699c2.5528,1.6988,5.4809,2.8336,7.329,3.7611c3.1441,0.0726,5.1146,0.2897,7.0555,0.1352
	c14.1479-1.1279,28.0893-3.235,40.8386-9.9958C100.5926,409.5869,107.4823,406.8605,114.7663,405.0762z M130.7567,450.844
	c-2.5317-0.5855-5.51-0.5007-8.0009,0.2545c-5.5978,1.6968-11.0456,3.9117-16.4986,6.0574
	c-9.7086,3.8208-17.8076,9.8601-24.0513,18.2288c-5.6174,7.5291-3.6037,12.5349,6.2183,14.0586
	c4.585,1.2592,9.2601-0.303,13.5528-3.5211c10.3391-7.751,19.7796-16.6633,30.6513-23.7269
	c0.3234-0.2101,0.6586-0.479,0.8506-0.8022c1.1681-1.9666,3.1795-3.9308,3.2399-5.9457
	C136.8207,452.0536,133.2082,451.411,130.7567,450.844z M1049.5858,591.5721c1.4495,3.3243,1.9065,6.6415,0.0538,9.8977
	c-1.1931,2.0964-1.5918,4.2243-1.4557,6.5767c0.0778,1.3438-0.2886,2.7137-0.4767,4.0693
	c-1.0983,7.9147-2.3955,15.8094-3.2528,23.7481c-0.9302,8.6129-1.6089,17.2581-2.1165,25.9044
	c-0.7485,12.7492-1.3807,25.4971-2.9124,38.1965c-1.0924,9.0561-1.731,18.1622-2.5945,27.244
	c-0.2157,2.2672-0.4393,4.5385-0.7943,6.7883c-1.3169,8.349-2.6194,16.7012-4.0676,25.0298
	c-0.9392,5.4025-2.1741,10.7568-3.1842,16.1486c-1.4972,7.9888-4.8903,15.273-9.3233,22.0677
	c-3.0803,4.7216-5.2467,9.588-6.2972,15.1004c-1.5534,8.1519-5.0217,15.6933-9.6463,22.6746
	c-7.8934,11.9163-18.3355,21.3839-30.3737,29.4843c-16.3539,11.0041-34.2653,18.8596-53.1763,24.5388
	c-13.5956,4.0828-27.4351,7.4773-41.6424,9.3027c-2.1302,0.2737-4.2608,0.5341-6.3918,0.7819
	c-7.4536,35.7825-35.6372,139.1882-59.0395,141.3712c-12.1898,1.1379-32.7079-3.743-34.5925-23.9528
	c-2.8138-30.1542,13.0257-78.8737,14.9838-89.0876c1.3875-5.9539,0.8484-11.7274-6.1584-13.9864
	c-1.425-0.7305-8.3242-3.6363-16.4112-8.0131c-10.9103,50.7739-23.6064,124.4396-40.0639,131.0682
	c-8.1006,3.3435-41.7263-6.7844-44.3021-34.3712c-1.9738-21.1725,4.0441-53.7682,5.0026-67.7703
	c0.1112-2.2769-2.5747-3.3204-3.678-1.2753c-15.7053,18.9387-31.8584,71.247-49.7315,73.8846
	c-17.2323,2.5789-29.8962-11.7703-31.5354-25.8542c-0.1953-1.6343-0.3557-3.423-0.4783-5.3295
	c-12.66,16.5985-27.3577,29.9314-43.0403,31.3945c-23.0959,2.1552-51.9287-15.5406-54.3524-41.5239
	c-3.7116-39.7756,10.99-100.687,56.5422-104.9366c3.848-0.3586,24.3954,4.8422,30.4825,24.9838
	c4.6597,22.215-32.9492,42.2255-48.3168,43.9843c-8.0189,0.7488-5.3687,36.0944-4.3597,43.4421
	c0.8391,8.9816,7.742,17.075,21.8563,15.7578c13.5748-1.2665,29.2843-19.2385,41.7909-37.118
	c2.8639-27.1494,13.6699-61.2059,42.6979-80.4604c7.6298-4.9177,47.8815,6.8579,46.0724,18.6744
	c0.1195,1.2847,1.7524,1.4557,1.9843,0.4625c1.6759-6.3031,1.3005-17.2711,9.3193-18.0179
	c9.7701-2.5272,26.7606,6.8278,27.6208,15.1525c-1.1028,6.8674-18.1187,124.5645-7.3031,126.2949
	c8.4667,0.2992,28.2594-81.7697,37.5992-111.9753c-11.5613-6.9641-23.3604-16.3829-24.3008-26.4652
	c-0.0914-1.8771,0.0967-4.4522,0.5374-7.5196c-6.1189-9.8002-7.0865-20.3241-3.1254-31.4392
	c1.0013-2.8101,1.9626-5.5967,2.6571-8.4845c0.374-1.5544,0.7727-3.131,1.4177-4.593c2.7088-6.1384,4.0125-12.6395,5.6405-19.069
	c1.1201-4.424,2.7388-8.7294,3.9877-13.1262c4.968-17.4868,7.6268-35.2642,7.1272-53.4251
	c-0.0187-0.6829,0.0658-1.3917-0.0983-2.0421c-0.232-0.9198-0.84-1.715-1.9057-1.7386c-1.1735-0.0262-2.3739,0.0798-3.5258,0.3033
	c-11.6544,2.2599-23.2983,4.569-34.9507,6.8379c-18.6639,3.6344-36.9429,8.7346-55.3206,13.4424
	c-9.6482,2.4716-19.1615,5.4425-28.6833,8.3459c-9.0654,2.7642-18.0499,5.771-27.0925,8.6051
	c-20.3488,6.3776-40.4066,13.5202-60.3396,20.9949c-12.6277,4.7353-25.3173,9.3258-37.8664,14.2456
	c-9.5006,3.7248-18.8913,7.7067-28.3138,11.615c18.9829,91.7819,4.4082,278.9133-88.1508,287.5547
	c-28.5495,2.666-52.9124-12.2087-56.9323-34.4835c-2.9995-21.7241,7.5008-34.0293,24.4164-46.9344
	c5.4442-4.0671,21.7535-2.6775,14.7436,5.4191c-25.6791,19.548-11.8385,49.9664,8.0503,48.108
	c62.5527-5.8396,75.5553-140.3671,68.667-214.1469c-0.3293-3.5291-3.3057-4.2213-4.6104-0.8642
	c-0.9407-3.1473-29.6455,115.6959-58.516,118.3912c-26.9449,2.517-50.8726-25.0184-52.9387-47.1526
	c-1.5271-16.3532-2.1938-35.0493-2.0548-53.5705c-6.3604,2.6916-12.7209,5.3829-19.0806,8.0759
	c-5.4368,2.3022-10.8422,4.676-16.3175,6.8904c-15.7991,6.3893-31.8737,12.0527-48.4985,16.1451
	c-12.9591,3.1901-26.1639,4.9747-39.5502,4.5034c-14.4316-0.508-28.2975-3.3923-40.9278-10.5699
	c-16.2337-9.2254-25.5204-22.8339-28.0849-40.6918c-0.3521-2.4518-0.6862-4.9527,0.4832-7.3966
	c0.4699-0.9821,0.5172-2.1877,0.5873-3.3016c0.2895-4.5928,1.4282-8.9835,3.0239-13.3144
	c5.0052-13.5864,8.7368-27.4904,11.2959-41.6974c2.025-11.2423,3.5543-22.5319,4.5466-33.9013
	c0.4951-5.6748,1.1734-11.3553,2.1862-16.9638c2.1219-11.7528,1.8638-23.6237,2.3006-35.4617
	c0.1512-4.0994,0.2072-8.2064,0.139-12.3076c-0.0754-4.5372,0.0779-9.0399-0.7096-13.6078
	c-1.8667-10.827,0.095-21.3827,3.9349-31.6127c3.8119-10.1552,9.5055-19.3583,15.8132-28.258
	c8.8909-12.5441,19.4376-23.6572,31.4583-33.4496c13.515-11.0096,28.3447-20.053,45.0634-25.9584
	c4.4425-1.5694,9.101-2.6247,13.7193-3.6774c9.0368-2.0597,17.4219-0.15,25.3467,4.1914c1.1421,0.6257,1.6834,1.571,1.8462,2.7406
	c0.0933,0.6699,0.0673,1.364,0.0179,2.0421c-0.6358,8.7303,0.5608,17.3106,2.472,25.8035
	c3.5648,15.8403,7.8532,31.5,12.5951,47.0599c3.2083,10.5269,6.8761,20.8821,10.9074,31.1315
	c0.6658,1.6925,1.7012,2.1867,3.2853,1.5226c5.667-2.3763,11.333-4.7568,16.9615-7.2156
	c19.0516-8.3231,38.0768-16.7019,57.1319-25.0178c16.4501-7.179,32.8374-14.4993,49.4165-21.3942
	c17.4634-7.2626,35.0068-14.3746,52.7225-21.0464c23.4675-8.8382,47.1457-17.1593,71.1733-24.5251
	c0.6792-0.2081,1.3555-0.4413,2.002-0.7274c0.4847-0.2145,0.8772-0.4919,1.1857-0.8222
	c13.0352-2.1092,26.986-4.7695,38.7344-10.9571c4.9349-1.4208,9.8694-2.843,14.8323-4.1679
	c16.9573-4.5262,34.0198-8.6322,51.2292-12.2197c6.5613-1.3678,13.1396-2.6438,19.726-3.8748
	c-1.6002-36.7426,0.2377-107.9125,9.6793-166.7222c-10.7548,3.1573-24.3101,6.7024-26.4726,7.489
	c-7.4106,2.8993-4.8328,6.4436-7.4106,12.8873c-24.8076,68.6251-59.6036,77.9685-67.6581,77.9685
	c-10.9543,0-19.3314-7.732-19.3314-21.2643c0-34.1516,36.0845-60.8925,44.4609-60.8925c5.7997,0,37.6959-69.2701,17.076-69.2701
	c-33.829,0-71.2024,109.5427-80.2234,161.7368c-2.5779,16.4316,0.6439,70.2365-0.6445,78.291
	c0,17.398-33.8296-0.6445-34.4741-9.9879c-1.6906-21.7371-1.7062-65.3366,1.6832-111.3558
	c-10.5292,31.6261-21.5247,58.4001-31.6407,61.4171c-8.3765,2.5779-40.9171-10.6319-40.9171-38.3398
	c0-21.2643,9.021-53.1605,11.2763-67.0142c0.3225-2.2554-2.2554-3.5443-3.5438-1.6109
	c-17.398,17.3975-38.3403,67.9806-56.3823,68.947c-17.398,0.967-28.6749-14.4982-28.9969-28.6743
	c-0.6445-24.8081,9.021-81.8348,52.8385-105.3545c8.0545-4.1883,47.0388,11.2769,44.139,22.8752
	c0,1.2889,1.6109,1.6109,1.9334,0.6445c2.2554-6.1216,2.8993-17.0755,10.9544-17.0755c9.9616-1.6067,26.0097,9.2859,26.0927,17.6544
	c-1.7365,6.7381-29.6124,122.3456-19.0051,125.0734c6.4574,0.833,24.0903-46.136,37.4048-81.1904
	c7.6855-62.0992,22.6534-117.5977,49.2575-117.5977c8.0546,0,25.1301,2.8998,22.2302,25.1306
	c-1.6109,11.9208-23.5192,33.1846-29.3183,35.118c-8.699,2.8998-14.8207,77.9685-14.8207,84.4122c0,1.6109,3.5443,1.6109,4.1888,0
	c-0.3225,1.9334,28.9963-118.5637,81.8348-118.5637c33.5071,0,28.6743,56.3823,26.0965,66.6922
	c11.0565-1.4116,20.7423-5.9068,31.1825-8.736c8.5823-47.2239,22.5323-84.0532,44.204-84.0532
	c8.0555,0,25.1306,2.8998,22.2307,25.1306c-1.6109,11.9208-23.5186,33.1846-29.3183,35.118
	c-8.6995,2.8998-14.8201,77.9685-14.8201,84.4122c0,1.6109,3.5438,1.6109,4.1877,0c-0.322,1.9334,28.9974-118.5637,81.8353-118.5637
	c33.5071,0,28.6744,56.3823,26.0965,66.6922c11.1284-1.4208,20.8674-5.9666,31.3854-8.7921
	c-0.0087-18.1096-1.8572-35.4649-8.192-47.9127c-0.645-0.9664-0.645-2.5773,0-2.8993c15.1421-5.7997,39.6287,6.4436,44.1384,12.5653
	c4.8328,11.5983-16.753,119.8527-2.2548,119.8527c11.9203,0,51.549-128.8742,51.8721-119.8527
	c5.7986-4.1888,16.1091,3.5438,19.9748,9.3429c0.967,2.5779,3.2218,20.9423-2.2548,79.2575c0.322,0.967,0.322,3.8663,1.2889,4.5108
	c7.0875,5.7992,42.8505-54.1269,43.4944-53.8049c2.8999-0.6445,5.7997,0.6445,6.4436,2.8998
	c2.256,9.3435-53.1599,75.0687-55.0938,85.7011c-3.8511,19.5758-13.0579,57.0508-27.657,89.7422
	c16.9294,4.1006,33.6603,8.9361,49.9479,15.0613c9.7449,3.6647,19.2855,7.7956,28.3057,12.9325
	c4.0944,2.3319,8.0499,4.8649,11.432,8.1395C1046.7793,586.8356,1048.4592,588.9888,1049.5858,591.5721z M755.2606,332.3736
	c6.1217-1.2884,17.398-14.1762,18.687-21.9082c0.645-4.1888,0.645-12.2433-4.1877-12.2433
	C756.5496,298.222,752.0388,332.3736,755.2606,332.3736z M589.6628,332.3736c6.1211-1.2884,17.398-14.1762,18.6864-21.9082
	c0.6445-4.1888,0.6445-12.2433-4.1882-12.2433C590.9512,298.222,586.441,332.3736,589.6628,332.3736z M473.0378,357.1816
	c-1.9334-2.5773-8.699-1.9329-10.9544-1.9329c-14.1762,0-42.2061,67.9811-35.1185,87.9565
	c5.4772,10.9544,48.6502-59.9266,49.6167-70.5585C477.548,367.1696,475.9371,361.6924,473.0378,357.1816z M633.4798,413.5645
	c0-2.8998-0.645-3.5443-1.9329-2.8998c-9.6665,4.1883-29.6413,36.0844-22.5532,39.9507
	C614.7928,450.6153,633.4798,420.9745,633.4798,413.5645z M555.8731,914.6688c13.2333-3.8248,24.495-14.9051,26.4027-22.2014
	c0.5643-7.8196-4.2339-14.1657-12.4845-12.4258c-13.7252,5.4871-21.2795,18.1636-23.7305,30.0419
	C544.7352,916.6783,553.0152,915.2593,555.8731,914.6688z M678.8831,890.8922c-2.1646-2.3859-8.8411-1.1158-11.0876-0.9061
	c-14.1143,1.3162-35.7063,71.6057-26.7928,90.8359c6.4698,10.3975,42.8705-64.1856,42.8453-74.86
	C684.3021,900.4182,682.1877,895.1135,678.8831,890.8922z M943.7347,488.9557c-3.7194,0.1689-21.096,25.1736-35.2869,50.0688
	c6.6302,1.0972,13.2283,2.3434,19.8014,3.701C935.845,523.3672,941.1425,502.2039,943.7347,488.9557z M890.2517,587.866
	c13.9344,0,25.6877-16.7346,34.7286-37.2704c-6.9645-1.3773-13.9664-2.5491-20.9995-3.5377
	C893.3657,566.6681,885.9361,584.4943,890.2517,587.866z M741.1306,540.8392c0.4238-0.0615,0.846-0.1326,1.2699-0.1935
	c23.0459-3.3115,46.1973-5.7721,69.5134-6.7058c16.163-0.6472,32.3266-0.7868,48.4607,0.0462
	c9.8088,0.5063,19.6141,1.3071,29.3983,2.4214c22.8349-33.984,57.7068-74.0638,58.7946-75.8042
	c0.6439-1.2889,1.2889-2.2554,1.9329-3.5443c3.8668-8.3765,9.6654-50.5826,9.6654-56.3823c0.322-4.1882-0.322-9.6654-1.2889-5.4772
	c-2.8988,15.4651-26.4185,80.8684-43.8165,77.3246c-10.9544-0.6445-26.4196-11.5988-33.5071-20.2979
	c-4.3814-10.2863,0.5839-41.5204,1.5807-72.7942c-10.9843,3.2818-26.0296,7.2031-28.318,8.0354
	c-7.4106,2.8993-4.8328,6.4436-7.4106,12.8873c-24.8076,68.6251-59.6036,77.9685-67.6581,77.9685
	c-10.9543,0-19.3309-7.732-19.3309-21.2643c0-34.1516,36.0839-60.8925,44.4615-60.8925c5.7986,0,37.6948-69.2701,17.075-69.2701
	c-33.829,0-71.2019,109.5427-80.2234,161.7368C740.1766,498.5311,740.7281,521.9877,741.1306,540.8392z M797.1453,410.6646
	c-9.6654,4.1883-29.6413,36.0844-22.5527,39.9507c5.7986,0,24.4855-29.6408,24.4855-37.0509
	C799.0781,410.6646,798.4342,410.0201,797.1453,410.6646z M180.5397,689.8981c0.9961,5.2068,2.6003,10.1916,5.7533,14.6078
	c2.7506,3.8528,6.1689,7.0266,10.9067,8.4291c3.8603,1.1426,7.8223,1.8111,11.9474,1.6937
	c10.0349-0.2857,19.8772-1.7694,29.6098-4.0048c23.9059-5.4907,46.8074-13.8556,69.5081-22.7176
	c4.0534-1.5822,8.7265-2.3257,11.8409-5.7958c-2.1451-4.0403-4.2722-8.0895-6.4484-12.1142
	c-0.5019-0.9283-1.4009-1.2143-2.4073-0.765c-1.2888,0.5754-2.6003,1.138-3.7955,1.8665
	c-7.4293,4.5285-14.8225,9.1114-22.2419,13.6548c-2.6076,1.5968-5.268,3.114-7.8806,4.7032
	c-2.5269,1.5374-4.9582,1.1938-7.3857-0.209c-1.0034-0.5797-1.4184-2.1813-0.674-2.934c0.6534-0.6602,1.3603-1.2742,2.0675-1.8826
	c9.7993-8.4288,20.9649-14.9744,32.1596-21.4857c1.5939-0.9271,4.2354-1.1068,4.5077-2.9775
	c0.2341-1.6075-1.0032-3.4271-1.6501-5.1319c-0.4878-1.2854-1.0757-2.5355-1.61-3.8047c-2.9773-7.0748-2.7167-6.0147-7.9226-2.1575
	c-8.6565,6.4138-17.003,13.212-25.4844,19.8436c-3.1356,2.4514-6.2917,4.8785-9.4201,7.3383
	c-1.1464,0.9014-2.4051,1.5684-3.902,1.3676c-2.5238-0.3387-5.6256-0.0615-6.6705-2.9179
	c-0.8127-2.2223,1.3732-3.7327,2.7217-5.2371c6.8478-7.6398,14.6426-14.3456,22.8104-20.6378
	c6.4791-4.9913,12.6467-10.4167,20.1263-14.1138c0.3107-0.1537,0.6382-0.818,0.5375-1.1117
	c-1.183-3.4501-2.4028-6.8907-3.7541-10.2819c-0.1376-0.3452-1.2178-0.5424-1.8155-0.469
	c-0.6645,0.0815-1.3229,0.4866-1.9058,0.8624c-14.2217,9.1701-28.4941,18.2729-41.9085,28.5326
	c-3.5354,2.704-7.0533,5.4288-10.5756,8.1481c-1.139,0.8793-2.3833,1.675-3.8827,1.3506c-1.1088-0.2399-2.3831-0.6274-3.127-1.3698
	c-1.1697-1.1674,0.2613-2.066,0.9734-2.8039c1.9374-2.0076,3.9555-3.9525,6.0484-5.8118
	c8.5677-7.6102,17.7334-14.5325,27.1745-21.0969c7.8909-5.4866,15.9994-10.6884,24.0776-15.9226
	c2.4966-1.6179,2.5746-1.4745,2.1832-4.2103c-0.6136-4.2895-1.1862-8.5844-1.7949-12.8746
	c-0.244-1.7203-1.3803-2.2408-3.0283-1.4236c-0.4225,0.2096-0.8529,0.4083-1.2587,0.645
	c-14.064,8.2099-27.3654,17.3956-39.42,28.1945c-6.4541,5.782-12.1254,12.2289-17.7139,18.7584
	c-1.8191,2.1254-4.519,2.4231-6.9301,0.8c-0.4688-0.3157-0.8426-1.2343-0.7294-1.7719c0.2286-1.0846,0.7101-2.1589,1.2836-3.131
	c2.9444-4.9923,6.6595-9.4386,10.7387-13.6105c7.9957-8.1769,16.654-15.6647,25.9752-22.4174
	c7.9775-5.7789,16.0814-11.4044,25.0569-15.7373c5.1664-0.917,6.9364-4.0877,6.4034-8.8199
	c-0.0494-0.4384,0.1602-0.8983,0.1983-1.3522c0.4408-5.2474-3.6352-8.7582-8.8208-7.5622c-1.6171,0.3732-3.2161,0.837-4.7941,1.3435
	c-15.2801,4.9034-29.2193,12.171-41.6686,21.9879c-17.6989,13.9564-31.3513,31.0922-42.4668,50.1726
	c-4.536,7.7867-8.5475,15.802-10.2849,24.6921C180.0957,675.371,179.1378,682.5694,180.5397,689.8981z M435.8293,836.856
	c-3.6502,1.5952-7.2994,3.1927-10.9585,4.7684c-12.8015,5.5128-25.6002,11.0317-38.4305,16.4822
	c-7.6417,3.2465-15.288,6.4831-22.933,9.7222c-1.0475,44.6917,3.4959,85.4979,21.102,83.8541
	C392.1891,950.975,420.6162,886.084,435.8293,836.856z M757.784,810.0269c3.0322,0.0309,4.7928-2.3762,7.2335-3.4861
	c0.5706-0.2595,1.1342-0.5333,1.6992-0.8041c3.3388-3.5266,6.9078-6.0759,10.6572-7.1968c1.6338-0.1524,3.2543,0.0361,4.8232,0.4832
	c6.8372-2.3245,13.8958-3.9566,21.0292-5.2817c15.1865-2.8206,30.4922-4.7266,45.9872-5.0876
	c9.9984-0.2328,19.9698-0.2908,29.8264,1.692c1.1652,0.2307,2.3243,0.496,3.4969,0.6841c2.077,0.3336,4.1621,0.6199,6.2438,0.9262
	c2.2708-1.7865,0.7836-4.2495,1.2042-6.3699c1.2266-6.1852,0.0487-5.6357-5.6812-6.6663c-0.9307-0.1672-1.8925-0.2648-2.838-0.2527
	c-7.8372,0.1002-15.6911-0.0359-23.5056,0.4305c-8.2909,0.4948-16.5541,1.4915-24.8076,2.4433
	c-2.4073,0.2777-4.7145,0.4572-7.0389-0.2654c-1.3512-0.4201-2.762-0.713-3.2771-2.277c-0.3715-1.1276,0.5161-1.9941,3.332-2.8388
	c2.2661-0.6793,4.5533-1.3909,6.8878-1.7465c6.0972-0.9283,12.2012-1.993,18.3464-2.4171
	c12.8096-0.884,25.6298-0.8198,38.3859,0.9603c1.0927,0.1523,1.798-0.3865,2.0004-1.4252c0.1747-0.8964,0.2457-1.8107,0.4076-2.7098
	c0.8568-4.7584,0.4723-5.1846-4.9556-5.9976c-0.4684-0.0702-0.947-0.0798-1.4214-0.108
	c-6.4052-0.3805-12.8059-0.8648-19.2166-1.1164c-13.5298-0.5314-27.0638-0.8163-40.5911,0.1427
	c-3.1104,0.2203-6.1718,0.6195-8.8337,2.3262c-2.6028,1.6689-4.978,0.8607-7.3243-0.4841
	c-0.9178-0.5262-1.1207-2.2695-0.4424-3.0473c1.9093-2.189,4.4191-3.5265,7.2239-4.1616c2.9957-0.6782,6.0673-1.1626,9.1342-1.4175
	c14.9316-1.2407,29.9017-1.2358,44.8714-1.0142c7.1125,0.1054,14.2679-0.3559,21.2753,1.4038
	c1.6588,0.4167,2.6728-0.2974,3.0576-1.9681c0.6155-2.6706,1.1561-5.3585,1.6519-8.0522c0.205-1.1128-0.6545-2.3026-1.8232-2.5557
	c-1.8542-0.4017-3.7256-0.7436-5.6038-1.0269c-5.4315-0.8199-10.909-0.4819-16.3725-0.6201
	c-16.4402-0.4159-32.7776,0.791-49.0445,2.7819c-9.1924,1.125-18.3873,2.6941-26.5364,7.3867
	c-3.1237,1.7987-5.8582,1.2051-8.5916-0.6431c-1.4552-0.9841-1.7281-2.3207-0.6402-3.4335c1.9615-2.0061,4.0894-3.7563,6.738-4.9678
	c4.3292-1.9803,8.8117-3.5042,13.5276-4.2083c8.9189-1.332,17.8412-2.738,26.8154-3.6084
	c8.7391-0.8475,17.5391-1.3031,26.3228-1.4979c11.6143-0.2576,23.3074-1.0193,34.6792,2.3105
	c0.2244,0.0657,0.4655,0.0845,0.7007,0.1095c1.0421,0.1112,1.9254-0.2399,2.2523-1.1884c0.4446-1.2902,0.7968-2.631,0.9778-3.9764
	c0.1313-0.976-0.5097-1.7628-1.5451-1.9343c-4.2175-0.6989-8.4244-1.6566-12.6765-1.9295
	c-17.0803-1.0963-34.1609-1.601-51.3028-0.8805c-19.9675,0.8391-39.7702,3.0561-59.5796,5.3461
	c-1.1764,0.1359-2.3384,0.4163-3.4936,0.6839c-1.3352,0.3094-1.9202,1.2485-1.9863,2.4846
	c-0.0483,0.9064,0.0217,1.8189,0.0457,2.7286c0.3674,13.9713-1.4551,27.7579-4.2415,41.4119
	c-1.642,8.0456-4.0573,15.9442-6.0221,23.9321C758.5793,804.6597,758.2553,807.36,757.784,810.0269z M772.8967,840.7003
	c-2.3492,6.043-4.1458,11.0645-6.0451,21.9203c0.1793,1.9245,7.2543,8.3818,9.9235,2.3094
	c2.1468-4.731,2.1384-8.2895,2.8526-14.5034C781.1075,835.0789,775.4756,833.6641,772.8967,840.7003z M747.0734,842.7488
	c0.8671-2.5737,1.8077-5.1699,2.8175-7.7488C748.7024,837.4366,747.7447,840.0081,747.0734,842.7488z M860.8127,900.2676
	c-10.4738,0.9265-20.9742,1.389-31.5391,1.0294c-3.8868-0.1323-7.7585-0.3696-11.6169-0.7046
	c0.1317,0.3087,0.2664,0.6122,0.3904,0.9333c9.7126,24.3325-24.7415,119.7661-6.4572,118.0609
	C823.1956,1018.5033,852.8657,938.711,860.8127,900.2676z M985.1711,769.5258c-8.5654-11.4752-20.0618-20.0316-33.3923-26.118
	c-9.23-4.2142-18.6083-8.1188-28.5895-10.5007c-2.5336-0.6013-5.0549-1.2572-7.6059-1.7808
	c-1.2621-0.259-2.3557,0.6193-2.5004,1.8134c-0.85,7.0177-1.6326,14.0434-2.5523,21.0525
	c-0.9496,7.2375-1.9276,14.4742-3.0858,21.6829c-0.8694,5.4114-2.0021,10.7859-3.0952,16.1623
	c-0.9569,4.7057-2.0868,9.3903,0.004,14.0889c0.0907,0.2039,0.0872,0.4474,0.119,0.6735c0.6678,4.7402-1.9721,6.8505-6.822,5.4683
	c-1.45-0.4132-2.5657-1.2086-3.1356-2.5639c-0.3539-0.842-0.5512-1.7439-0.8378-2.6129c-1.4602-4.4304-4.483-7.4952-9.0063-9.0765
	c-2.2198-0.7762-4.5359-1.504-6.8656-1.7435c-4.9564-0.5101-9.9456-0.8217-14.9293-0.9717
	c-10.0023-0.3014-19.9525,0.576-29.8757,1.647c-14.2111,1.5339-28.213,4.0893-41.8606,8.1667
	c2.7166,3.0297,4.655,6.747,5.264,10.2956c2.6345,3.9612-6.7468,45.6067-12.3461,58.4247
	c-0.5212,1.3424,0.4101,0.9334,0.4698,1.5731c8.4965,7.9916,20.709,9.4556,28.5463,18.1423
	c4.3792,0.3547,8.7787,0.551,13.188,0.5893c12.1246,0.1054,24.1329-0.8026,36.0741-2.4527
	c0.0845-0.6472,0.1615-1.2793,0.2231-1.8793c-0.2142-2.3031,7.4924-3.4867,9.8622,0.3026c0.9149-0.1576,1.8306-0.3049,2.7449-0.4703
	c20.2024-3.6581,39.6719-9.4229,58.2352-17.9483c15.5696-7.1503,29.8666-16.0329,41.9307-28.0021
	c9.9844-9.9062,16.8252-21.2762,19.3526-35.0903C997.3201,793.9928,993.7593,781.0317,985.1711,769.5258z M1030.4771,590.62
	c-0.0143-2.1374-0.911-3.9987-2.9248-5.2012c-4.2294-2.5259-8.2934-5.359-12.7106-7.5327
	c-9.5228-4.686-19.4867-8.3677-29.6653-11.605c-11.1851-3.5573-22.3966-6.9574-33.8899-9.4679
	c-14.328,29.3324-33.2635,52.9615-56.8459,52.9615c-15.1431,0-22.2307-18.0424-24.1646-33.5071
	c0.2596-7.093,5.9106-18.5309,14.0651-31.5161c-2.3621-0.2269-4.7261-0.4417-7.0931-0.6357
	c-18.4985-1.5164-37.0814-1.5859-55.6328-0.7303c-23.0302,1.0623-46.0048,2.8066-68.8019,6.277
	c-3.8211,0.5817-7.6503,1.1242-11.4789,1.6695c0.1183,7.5496,0.1094,13.3479-0.2497,15.5921
	c0,17.1835-32.9777-0.1994-34.4117-9.6329c-13.1126,2.6314-26.1885,5.4464-39.2046,8.4737
	c-15.0135,3.4919-29.97,7.2923-44.7559,11.5776c-18.4354,5.343-36.7336,11.1425-54.9707,17.0845
	c-14.4113,4.6956-28.7098,9.731-42.9314,14.9348c-13.5557,4.9601-26.9915,10.2296-40.3982,15.5526
	c-14.5061,5.7594-28.9529,11.6605-43.359,17.6471c-10.4692,4.3504-20.8213,8.9595-31.2413,13.4194
	c-18.6817,7.9958-37.3474,16.0269-56.0729,23.9276c-14.8068,6.2473-29.5984,12.544-44.5706,18.4104
	c-15.1932,5.9531-30.5732,11.4671-46.3365,15.943c-12.3441,3.5051-24.8633,6.139-37.668,7.4548
	c-9.7833,1.0053-19.4787,0.5374-29.0363-1.8387c-1.6131-0.4009-3.2238-0.814-4.8477-1.1711
	c-2.2677-0.4985-3.1745,0.0007-3.6403,2.0267c-0.6135,2.6678-1.1483,5.3522-1.7625,8.0198
	c-1.1284,4.9014-2.4415,9.7684-3.4073,14.6984c-2.2405,11.4389-4.32,22.9067-6.4647,34.3626
	c-0.1127-0.0182-0.2251-0.0366-0.3376-0.0549c-3.0051,17.1027-6.0066,34.2057-9.0195,51.3072
	c-0.4758,2.7004-1.1668,5.3751-1.4777,8.0911c-0.9589,8.3777-1.7546,16.7725-2.6711,25.1548
	c-0.3792,3.4675-0.1447,6.7993,1.4712,10.0001c2.3817,4.7186,4.4868,9.5743,7.0498,14.1982
	c4.5322,8.1765,11.6987,13.6935,20.4067,17.3955c2.1382,0.909,4.5282,1.5484,6.8516,1.7282
	c6.159,0.4769,12.3374,0.5906,18.5098-0.1069c17.8084-2.0125,35.0891-6.2156,51.9237-11.9843
	c20.8441-7.1423,41.1344-15.617,61.3113-24.3329c1.0819-0.4673,2.1658-0.9301,3.248-1.3968
	c0.9069-32.3517,4.2956-62.3192,9.8796-75.9911c5.8553-3.1337,29.0467,9.5857,24.3419,18.1132
	c-1.5435,13.8817-2.8163,29.285-3.5238,44.676c1.0572-0.4545,2.1144-0.9092,3.1715-1.364
	c11.2819-4.8534,22.5596-9.7159,33.8422-14.5676c8.898-3.8262,17.8038-7.6353,26.7006-11.4643
	c4.1688-1.7941,8.3336-3.5966,12.4993-5.3974c4.5111-16.8824,6.6584-30.3749,4.6348-36.2498
	c1.827-4.7016,23.4085-5.7451,27.6644,5.183c1.7782,4.4839,3.4241,9.5587,4.926,15.1304c2.1047-0.8796,4.211-1.7557,6.3241-2.6161
	c10.2892-4.1902,20.7543-7.9848,31.026-12.2123c17.7136-7.2897,35.8594-13.4915,53.9611-19.7845
	c14.0784-4.8943,28.3569-9.2693,42.6038-13.7061c25.5651-7.9612,51.3551-15.1471,77.5215-21.1235
	c17.588-4.017,35.1991-7.8331,53.0198-10.7803c20.3875-3.3716,40.8564-6.0672,61.469-7.8217
	c22.0634-1.8781,44.131-2.3012,66.2491-1.082c14.5186,0.8003,28.8997,2.5697,43.1642,5.1888
	c9.8259,1.8043,19.3326,4.7447,28.8213,7.7798c7.0135,2.2433,13.8366,4.9113,20.4894,7.9111
	c9.498,4.283,18.2585,9.8311,26.3808,16.1953c8.1886,6.4163,14.6124,14.3106,19.7729,23.156
	c0.7849,1.3453,0.844,3.9614,2.5045,3.743c1.9583-0.2574,1.5819-2.8638,1.8901-4.4865c0.4236-2.2313,0.2486-4.5658,0.6569-6.8013
	c1.8475-10.1147,2.5654-20.3448,3.6553-30.5405c1.2595-11.7786,2.8836-23.5209,4.277-35.287
	c0.9908-8.3671,2.0348-16.7339,2.7466-25.1249c1.1176-13.174,1.8704-26.3764,2.9857-39.5505
	c0.5765-6.811,1.2365-13.6509,2.5116-20.3638C1031.2063,609.2665,1030.5397,599.9473,1030.4771,590.62z M497.8768,642.017
	l16.6461,58.6948l-80.8826-42.602l30.6513,108.0776l21.248-6.0262l-16.646-58.6954l80.9675,42.6492l-30.6702-108.1432
	L497.8768,642.017z M577.6398,711.2267l-6.0441-21.3141l31.8721-9.0393l-6.0074-21.183l-31.873,9.0394l-6.0441-21.313l42.496-12.053
	l-6.0073-21.183l-63.7451,18.0787l30.0944,106.1107l63.7436-18.0787l-5.9885-21.1169L577.6398,711.2267z M697.1306,639.8566
	l-33.7347-44.4955l-5.418,55.5994l-33.7336-44.4955l-22.8878,6.4908l73.0818,96.0446l4.43-58.0829l34.7226,46.9785l11.7787-120.1111
	l-22.9533,6.5097L697.1306,639.8566z M1163.2428,452.1921c-5.4688-5.8124-12.0131-10.2585-19.2821-13.3985
	c-6.4822-2.8004-13.26-4.918-19.9164-7.3129c-10.3466-3.7226-21.2946-5.5449-31.303-10.4435
	c-4.9622-2.429-10.6454-2.7284-16.2275-2.4358c-4.5104,0.2369-10.1256,6.5686-6.4366,12.3023
	c1.2682,1.9716,2.6095,4.0431,4.3783,5.5149c3.6217,3.0139,7.3253,6.0605,11.4064,8.3654
	c9.9341,5.6107,19.9703,11.0772,30.2158,16.0898c9.9205,4.8541,20.2567,8.7334,29.7784,9.5183
	c3.6075,0.4348,5.559,0.7633,7.5233,0.8839c2.7471,0.1685,5.5319,0.4716,8.2505,0.2052c7.0576-0.6907,10.2297-6.8037,6.6421-12.7598
	C1166.8622,456.3809,1165.1185,454.1859,1163.2428,452.1921z M1168.8901,349.3218c-2.5854-1.6483-5.5354-2.7254-7.4012-3.6165
	c-3.145-0.0108-5.1194-0.1892-7.0568,0.0033c-14.123,1.4053-28.0204,3.7856-40.6345,10.7953
	c-6.5619,3.6464-13.3967,6.5074-20.6444,8.4343c-1.8895,0.5024-3.743,1.1668-5.5726,1.8633
	c-3.2772,1.2475-7.2428,2.4137-7.1754,6.5757c0.0548,3.3768,3.4069,5.1619,6.2844,6.4001c2.4629,1.0598,5.235,2.0889,7.837,2.0119
	c8.5953-0.2548,17.158-0.5224,25.6901-2.4202c13.9097-3.0941,26.7778-8.9023,39.8461-14.1807
	c3.5221-1.4226,6.5251-4.3031,9.5204-6.8084C1172.5886,355.8662,1172.2742,351.4796,1168.8901,349.3218z M1076.2677,319.4931
	c2.5427,0.5356,5.5188,0.3924,7.9943-0.4114c5.5635-1.8063,10.9667-4.1277,16.3767-6.3801
	c9.6317-4.0105,17.6107-10.2076,23.6888-18.6972c5.4685-7.6378,3.3571-12.6031-6.4929-13.9338
	c-4.6088-1.169-9.2523,0.4847-13.4811,3.7864c-10.1851,7.9525-19.4487,17.0483-30.1799,24.3238
	c-0.3191,0.2164-0.649,0.4919-0.8345,0.8188c-1.1293,1.9892-3.1019,3.9925-3.1228,6.0082
	C1070.1813,318.4027,1073.8057,318.9743,1076.2677,319.4931z M734.2271,887.6042c0.0023,0.0217,0.0079,0.0436,0.01,0.0652
	C734.305,887.1639,734.2966,887.1711,734.2271,887.6042z"/>
</svg>
